# xmcd
#
# Track frame offsets:
#	150
#	14214
#	30097
#	46018
#	58110
#	71697
#	84340
#	107955
#	120066
#	134642
#	152464
#	164933
#	177695
#	191788
#	206352
#
# Disc length: 2891 seconds
#
# Revision: 1
# Processed by: cddbd v1.5.2PL0 Copyright (c) Steve Scherf et al.
# Submitted via: audiograbber 1.83.01
#
DISCID=d00b490f
DTITLE=B.B.King - Beale Street Blues Boys 10
DYEAR=1960
DGENRE=Blues
TTITLE0=B.B.King - What Way to Go (King - Josea)
TTITLE1=B.B.King - Long Nights (King - Taub)
TTITLE2=B.B.King - Feel Like a Million (King - Taub)
TTITLE3=B.B.King - If I Lost You (King - Taub)
TTITLE4=B.B.King - Partin Time (King - Josea)
TTITLE5=B.B.King - Please Set the Date (McCoy)
TTITLE6=B.B.King - You Don't Lost Your Good thing Now (King - Josea)
TTITLE7=B.B.King - I'll Survive (King - Ling)
TTITLE8=B.B.King - Mister Pawnbroker (King - Taub)
TTITLE9=B.B.King - Hold that Train (Clayton)
TTITLE10=B.B.King - Good Man Gone Bad (King - Taub - Washington)
TTITLE11=B.B.King - You're On the Top (King - Ling)
TTITLE12=B.B.King - Things Are Not the Same (King - Josea)
TTITLE13=B.B.King - I've Got a Right to Love My Baby (King - Ling)
TTITLE14=B.B.King - I'm King (King - Taub)
EXTD=
EXTT0=
EXTT1=
EXTT2=
EXTT3=
EXTT4=
EXTT5=
EXTT6=
EXTT7=
EXTT8=
EXTT9=
EXTT10=
EXTT11=
EXTT12=
EXTT13=
EXTT14=arr.by Ledeburgh
PLAYORDER=
